<mxfile host="app.diagrams.net" modified="2024-07-18T05:57:56.307Z" agent="Mozilla/5.0 (Windows NT 10.0; Win64; x64) AppleWebKit/537.36 (KHTML, like Gecko) Chrome/126.0.0.0 Safari/537.36 Edg/126.0.0.0" etag="NOy4PToZ_XdU8omgFKaO" version="24.6.5" type="github">
  <diagram name="Page-1" id="GSzxInEed5Eg9GhdL2N2">
    <mxGraphModel dx="1472" dy="864" grid="0" gridSize="10" guides="1" tooltips="1" connect="1" arrows="1" fold="1" page="0" pageScale="1" pageWidth="850" pageHeight="1100" math="0" shadow="0">
      <root>
        <mxCell id="0" />
        <mxCell id="1" parent="0" />
        <mxCell id="3sOn0cyW0fC2nDaG2U---8" value="Producer" style="text;whiteSpace=wrap;html=1;spacing=0;labelBackgroundColor=none;fontColor=#6666FF;fontStyle=1;fontFamily=Indie Flower;fontSource=https%3A%2F%2Ffonts.googleapis.com%2Fcss%3Ffamily%3DIndie%2BFlower;fontSize=19;" parent="1" vertex="1">
          <mxGeometry x="-188" y="60.5" width="76" height="29" as="geometry" />
        </mxCell>
        <mxCell id="3sOn0cyW0fC2nDaG2U---12" value="" style="group" parent="1" vertex="1" connectable="0">
          <mxGeometry x="-70" width="170" height="150" as="geometry" />
        </mxCell>
        <mxCell id="3sOn0cyW0fC2nDaG2U---2" value="" style="whiteSpace=wrap;html=1;sketch=1;hachureGap=4;jiggle=2;curveFitting=1;fontFamily=Architects Daughter;fontSource=https%3A%2F%2Ffonts.googleapis.com%2Fcss%3Ffamily%3DArchitects%2BDaughter;labelBackgroundColor=none;fillColor=#1ba1e2;strokeColor=#006EAF;fontColor=#ffffff;" parent="3sOn0cyW0fC2nDaG2U---12" vertex="1">
          <mxGeometry x="86" y="52" width="41" height="38" as="geometry" />
        </mxCell>
        <mxCell id="3sOn0cyW0fC2nDaG2U---9" value="Raises Events" style="text;whiteSpace=wrap;html=1;spacing=0;labelBackgroundColor=none;fontColor=#97D077;fontStyle=1;fontFamily=Indie Flower;fontSource=https%3A%2F%2Ffonts.googleapis.com%2Fcss%3Ffamily%3DIndie%2BFlower;fontSize=12;" parent="3sOn0cyW0fC2nDaG2U---12" vertex="1">
          <mxGeometry x="69.5" y="9" width="74" height="23" as="geometry" />
        </mxCell>
        <mxCell id="3sOn0cyW0fC2nDaG2U---11" value="Once event is raised and successful,&amp;nbsp;&lt;div&gt;producer has done it&#39;s job&lt;/div&gt;" style="text;whiteSpace=wrap;html=1;spacing=0;labelBackgroundColor=none;fontColor=#999999;fontStyle=1;fontFamily=Indie Flower;fontSource=https%3A%2F%2Ffonts.googleapis.com%2Fcss%3Ffamily%3DIndie%2BFlower;fontSize=10;align=center;" parent="3sOn0cyW0fC2nDaG2U---12" vertex="1">
          <mxGeometry x="22" y="115" width="169" height="33" as="geometry" />
        </mxCell>
        <mxCell id="3sOn0cyW0fC2nDaG2U---13" value="" style="group" parent="1" vertex="1" connectable="0">
          <mxGeometry x="142" width="170" height="150" as="geometry" />
        </mxCell>
        <mxCell id="3sOn0cyW0fC2nDaG2U---14" value="" style="whiteSpace=wrap;html=1;sketch=1;hachureGap=4;jiggle=2;curveFitting=1;fontFamily=Architects Daughter;fontSource=https%3A%2F%2Ffonts.googleapis.com%2Fcss%3Ffamily%3DArchitects%2BDaughter;labelBackgroundColor=none;fillColor=#1ba1e2;strokeColor=#006EAF;fontColor=#ffffff;" parent="3sOn0cyW0fC2nDaG2U---13" vertex="1">
          <mxGeometry x="64" y="41" width="41" height="60" as="geometry" />
        </mxCell>
        <mxCell id="3sOn0cyW0fC2nDaG2U---15" value="Owns the Schema" style="text;whiteSpace=wrap;html=1;spacing=0;labelBackgroundColor=none;fontColor=#97D077;fontStyle=1;fontFamily=Indie Flower;fontSource=https%3A%2F%2Ffonts.googleapis.com%2Fcss%3Ffamily%3DIndie%2BFlower;fontSize=12;" parent="3sOn0cyW0fC2nDaG2U---13" vertex="1">
          <mxGeometry x="36.5" y="8" width="96" height="23" as="geometry" />
        </mxCell>
        <mxCell id="3sOn0cyW0fC2nDaG2U---16" value="Own the contract and schema for downstream consumers" style="text;whiteSpace=wrap;html=1;spacing=0;labelBackgroundColor=none;fontColor=#999999;fontStyle=1;fontFamily=Indie Flower;fontSource=https%3A%2F%2Ffonts.googleapis.com%2Fcss%3Ffamily%3DIndie%2BFlower;fontSize=10;align=center;" parent="3sOn0cyW0fC2nDaG2U---13" vertex="1">
          <mxGeometry y="115" width="169" height="33" as="geometry" />
        </mxCell>
        <mxCell id="3sOn0cyW0fC2nDaG2U---22" value="" style="whiteSpace=wrap;html=1;sketch=1;hachureGap=4;jiggle=2;curveFitting=1;fontFamily=Architects Daughter;fontSource=https%3A%2F%2Ffonts.googleapis.com%2Fcss%3Ffamily%3DArchitects%2BDaughter;labelBackgroundColor=none;fillColor=#1ba1e2;strokeColor=#006EAF;fontColor=#ffffff;" parent="1" vertex="1">
          <mxGeometry x="402" y="30" width="40" height="60" as="geometry" />
        </mxCell>
        <mxCell id="3sOn0cyW0fC2nDaG2U---23" value="Manages Payload Changes" style="text;whiteSpace=wrap;html=1;spacing=0;labelBackgroundColor=none;fontColor=#97D077;fontStyle=1;fontFamily=Indie Flower;fontSource=https%3A%2F%2Ffonts.googleapis.com%2Fcss%3Ffamily%3DIndie%2BFlower;fontSize=12;" parent="1" vertex="1">
          <mxGeometry x="352" width="130" height="20" as="geometry" />
        </mxCell>
        <mxCell id="3sOn0cyW0fC2nDaG2U---24" value="If contract changes, producer may need to consider how consumers are impacted" style="text;whiteSpace=wrap;html=1;spacing=0;labelBackgroundColor=none;fontColor=#999999;fontStyle=1;fontFamily=Indie Flower;fontSource=https%3A%2F%2Ffonts.googleapis.com%2Fcss%3Ffamily%3DIndie%2BFlower;fontSize=10;align=center;" parent="1" vertex="1">
          <mxGeometry x="332" y="110" width="180" height="30" as="geometry" />
        </mxCell>
        <mxCell id="3sOn0cyW0fC2nDaG2U---25" value="" style="whiteSpace=wrap;html=1;sketch=1;hachureGap=4;jiggle=2;curveFitting=1;fontFamily=Architects Daughter;fontSource=https%3A%2F%2Ffonts.googleapis.com%2Fcss%3Ffamily%3DArchitects%2BDaughter;labelBackgroundColor=none;fillColor=#7F00FF;strokeColor=#7F00FF;fontColor=#ffffff;" parent="1" vertex="1">
          <mxGeometry x="412" y="30" width="40" height="60" as="geometry" />
        </mxCell>
        <mxCell id="3sOn0cyW0fC2nDaG2U---27" value="Producers &amp;amp; Consumers Responsibility&amp;nbsp;&amp;nbsp;" style="text;spacing=0;labelBackgroundColor=none;fontColor=#000000;fontStyle=1;fontFamily=Indie Flower;fontSource=https%3A%2F%2Ffonts.googleapis.com%2Fcss%3Ffamily%3DIndie%2BFlower;fontSize=45;align=center;whiteSpace=wrap;html=1;" parent="1" vertex="1">
          <mxGeometry x="-223" y="164" width="930" height="70" as="geometry" />
        </mxCell>
        <mxCell id="3sOn0cyW0fC2nDaG2U---28" value="Set clear responsibility for producers &amp;amp; consumers" style="text;whiteSpace=wrap;html=1;spacing=0;labelBackgroundColor=none;fontColor=#999999;fontStyle=1;fontFamily=Indie Flower;fontSource=https%3A%2F%2Ffonts.googleapis.com%2Fcss%3Ffamily%3DIndie%2BFlower;fontSize=25;align=center;" parent="1" vertex="1">
          <mxGeometry x="-96.5" y="210" width="649" height="20" as="geometry" />
        </mxCell>
        <mxCell id="3sOn0cyW0fC2nDaG2U---29" value="Consumer" style="text;whiteSpace=wrap;html=1;spacing=0;labelBackgroundColor=none;fontColor=#EA6B66;fontStyle=1;fontFamily=Indie Flower;fontSource=https%3A%2F%2Ffonts.googleapis.com%2Fcss%3Ffamily%3DIndie%2BFlower;fontSize=19;" parent="1" vertex="1">
          <mxGeometry x="-204" y="359.5" width="76" height="29" as="geometry" />
        </mxCell>
        <mxCell id="3sOn0cyW0fC2nDaG2U---37" value="" style="edgeStyle=none;curved=1;rounded=0;sketch=1;hachureGap=4;jiggle=2;curveFitting=1;orthogonalLoop=1;jettySize=auto;html=1;strokeColor=#736CA8;fontFamily=Architects Daughter;fontSource=https%3A%2F%2Ffonts.googleapis.com%2Fcss%3Ffamily%3DArchitects%2BDaughter;fontSize=12;fontColor=#1A1A1A;startSize=8;endSize=8;" parent="1" source="3sOn0cyW0fC2nDaG2U---38" target="3sOn0cyW0fC2nDaG2U---41" edge="1">
          <mxGeometry relative="1" as="geometry" />
        </mxCell>
        <mxCell id="3sOn0cyW0fC2nDaG2U---38" value="" style="whiteSpace=wrap;html=1;sketch=1;hachureGap=4;jiggle=2;curveFitting=1;fontFamily=Architects Daughter;fontSource=https%3A%2F%2Ffonts.googleapis.com%2Fcss%3Ffamily%3DArchitects%2BDaughter;labelBackgroundColor=none;fillColor=#1ba1e2;strokeColor=#006EAF;fontColor=#ffffff;container=0;" parent="1" vertex="1">
          <mxGeometry x="159" y="327" width="40" height="40" as="geometry" />
        </mxCell>
        <mxCell id="3sOn0cyW0fC2nDaG2U---39" value="Message filters &amp;amp; rules" style="text;whiteSpace=wrap;html=1;spacing=0;labelBackgroundColor=none;fontColor=#97D077;fontStyle=1;fontFamily=Indie Flower;fontSource=https%3A%2F%2Ffonts.googleapis.com%2Fcss%3Ffamily%3DIndie%2BFlower;fontSize=12;container=0;" parent="1" vertex="1">
          <mxGeometry x="169" y="277" width="120" height="20" as="geometry" />
        </mxCell>
        <mxCell id="3sOn0cyW0fC2nDaG2U---40" value="Consumers manages filter &amp;amp; rules on brokers.&lt;div&gt;Consumers can come and go anytime&lt;/div&gt;" style="text;whiteSpace=wrap;html=1;spacing=0;labelBackgroundColor=none;fontColor=#999999;fontStyle=1;fontFamily=Indie Flower;fontSource=https%3A%2F%2Ffonts.googleapis.com%2Fcss%3Ffamily%3DIndie%2BFlower;fontSize=10;align=center;container=0;" parent="1" vertex="1">
          <mxGeometry x="139" y="437" width="190" height="30" as="geometry" />
        </mxCell>
        <mxCell id="3sOn0cyW0fC2nDaG2U---41" value="" style="whiteSpace=wrap;html=1;sketch=1;hachureGap=4;jiggle=2;curveFitting=1;fontFamily=Architects Daughter;fontSource=https%3A%2F%2Ffonts.googleapis.com%2Fcss%3Ffamily%3DArchitects%2BDaughter;labelBackgroundColor=none;fillColor=#EA6B66;strokeColor=#EA6B66;fontColor=#ffffff;container=0;" parent="1" vertex="1">
          <mxGeometry x="249" y="327" width="40" height="40" as="geometry" />
        </mxCell>
        <mxCell id="3sOn0cyW0fC2nDaG2U---42" value="" style="edgeStyle=none;curved=1;rounded=0;sketch=1;hachureGap=4;jiggle=2;curveFitting=1;orthogonalLoop=1;jettySize=auto;html=1;strokeColor=#736CA8;fontFamily=Architects Daughter;fontSource=https%3A%2F%2Ffonts.googleapis.com%2Fcss%3Ffamily%3DArchitects%2BDaughter;fontSize=12;fontColor=#1A1A1A;startSize=8;endSize=8;" parent="1" source="3sOn0cyW0fC2nDaG2U---43" target="3sOn0cyW0fC2nDaG2U---44" edge="1">
          <mxGeometry relative="1" as="geometry" />
        </mxCell>
        <mxCell id="3sOn0cyW0fC2nDaG2U---43" value="" style="whiteSpace=wrap;html=1;sketch=1;hachureGap=4;jiggle=2;curveFitting=1;fontFamily=Architects Daughter;fontSource=https%3A%2F%2Ffonts.googleapis.com%2Fcss%3Ffamily%3DArchitects%2BDaughter;labelBackgroundColor=none;fillColor=#7F00FF;strokeColor=#7F00FF;fontColor=#ffffff;container=0;" parent="1" vertex="1">
          <mxGeometry x="159" y="387" width="40" height="40" as="geometry" />
        </mxCell>
        <mxCell id="3sOn0cyW0fC2nDaG2U---44" value="" style="whiteSpace=wrap;html=1;sketch=1;hachureGap=4;jiggle=2;curveFitting=1;fontFamily=Architects Daughter;fontSource=https%3A%2F%2Ffonts.googleapis.com%2Fcss%3Ffamily%3DArchitects%2BDaughter;labelBackgroundColor=none;fillColor=#00CC00;strokeColor=#00CC00;fontColor=#ffffff;container=0;" parent="1" vertex="1">
          <mxGeometry x="249" y="387" width="40" height="40" as="geometry" />
        </mxCell>
        <mxCell id="3sOn0cyW0fC2nDaG2U---46" value="" style="edgeStyle=none;curved=1;rounded=0;sketch=1;hachureGap=4;jiggle=2;curveFitting=1;orthogonalLoop=1;jettySize=auto;html=1;strokeColor=#736CA8;fontFamily=Architects Daughter;fontSource=https%3A%2F%2Ffonts.googleapis.com%2Fcss%3Ffamily%3DArchitects%2BDaughter;fontSize=12;fontColor=#1A1A1A;startSize=8;endSize=8;" parent="1" source="3sOn0cyW0fC2nDaG2U---47" target="3sOn0cyW0fC2nDaG2U---50" edge="1">
          <mxGeometry relative="1" as="geometry" />
        </mxCell>
        <mxCell id="3sOn0cyW0fC2nDaG2U---47" value="" style="whiteSpace=wrap;html=1;sketch=1;hachureGap=4;jiggle=2;curveFitting=1;fontFamily=Architects Daughter;fontSource=https%3A%2F%2Ffonts.googleapis.com%2Fcss%3Ffamily%3DArchitects%2BDaughter;labelBackgroundColor=none;fillColor=#1ba1e2;strokeColor=#006EAF;fontColor=#ffffff;" parent="1" vertex="1">
          <mxGeometry x="378" y="359.5" width="40" height="40" as="geometry" />
        </mxCell>
        <mxCell id="3sOn0cyW0fC2nDaG2U---48" value="Event Enrichment" style="text;whiteSpace=wrap;html=1;spacing=0;labelBackgroundColor=none;fontColor=#97D077;fontStyle=1;fontFamily=Indie Flower;fontSource=https%3A%2F%2Ffonts.googleapis.com%2Fcss%3Ffamily%3DIndie%2BFlower;fontSize=12;" parent="1" vertex="1">
          <mxGeometry x="448" y="277" width="90" height="20" as="geometry" />
        </mxCell>
        <mxCell id="3sOn0cyW0fC2nDaG2U---49" value="It might make more sense for consumers to get more info vs producers giving more" style="text;whiteSpace=wrap;html=1;spacing=0;labelBackgroundColor=none;fontColor=#999999;fontStyle=1;fontFamily=Indie Flower;fontSource=https%3A%2F%2Ffonts.googleapis.com%2Fcss%3Ffamily%3DIndie%2BFlower;fontSize=10;align=center;" parent="1" vertex="1">
          <mxGeometry x="384.5" y="429.5" width="217" height="30" as="geometry" />
        </mxCell>
        <mxCell id="3sOn0cyW0fC2nDaG2U---52" value="" style="edgeStyle=none;curved=1;rounded=0;sketch=1;hachureGap=4;jiggle=2;curveFitting=1;orthogonalLoop=1;jettySize=auto;html=1;strokeColor=#736CA8;fontFamily=Architects Daughter;fontSource=https%3A%2F%2Ffonts.googleapis.com%2Fcss%3Ffamily%3DArchitects%2BDaughter;fontSize=12;fontColor=#1A1A1A;startSize=8;endSize=8;" parent="1" source="3sOn0cyW0fC2nDaG2U---50" target="3sOn0cyW0fC2nDaG2U---51" edge="1">
          <mxGeometry relative="1" as="geometry" />
        </mxCell>
        <mxCell id="3sOn0cyW0fC2nDaG2U---54" value="" style="edgeStyle=none;curved=1;rounded=0;sketch=1;hachureGap=4;jiggle=2;curveFitting=1;orthogonalLoop=1;jettySize=auto;html=1;strokeColor=#736CA8;fontFamily=Architects Daughter;fontSource=https%3A%2F%2Ffonts.googleapis.com%2Fcss%3Ffamily%3DArchitects%2BDaughter;fontSize=12;fontColor=#1A1A1A;startSize=8;endSize=8;" parent="1" source="3sOn0cyW0fC2nDaG2U---50" target="3sOn0cyW0fC2nDaG2U---51" edge="1">
          <mxGeometry relative="1" as="geometry" />
        </mxCell>
        <mxCell id="3sOn0cyW0fC2nDaG2U---50" value="" style="whiteSpace=wrap;html=1;sketch=1;hachureGap=4;jiggle=2;curveFitting=1;fontFamily=Architects Daughter;fontSource=https%3A%2F%2Ffonts.googleapis.com%2Fcss%3Ffamily%3DArchitects%2BDaughter;labelBackgroundColor=none;fillColor=#EA6B66;strokeColor=#EA6B66;fontColor=#ffffff;" parent="1" vertex="1">
          <mxGeometry x="468" y="359.5" width="40" height="40" as="geometry" />
        </mxCell>
        <mxCell id="3sOn0cyW0fC2nDaG2U---51" value="&lt;pre&gt;&lt;font data-font-src=&quot;https://fonts.googleapis.com/css?family=Indie+Flower&quot; face=&quot;Indie Flower&quot; color=&quot;#000000&quot;&gt;API&lt;/font&gt;&lt;/pre&gt;" style="whiteSpace=wrap;html=1;sketch=1;hachureGap=4;jiggle=2;curveFitting=1;fontFamily=Architects Daughter;fontSource=https%3A%2F%2Ffonts.googleapis.com%2Fcss%3Ffamily%3DArchitects%2BDaughter;labelBackgroundColor=none;fillColor=none;strokeColor=default;fontColor=#ffffff;gradientColor=default;" parent="1" vertex="1">
          <mxGeometry x="558" y="359.5" width="40" height="40" as="geometry" />
        </mxCell>
        <mxCell id="3sOn0cyW0fC2nDaG2U---56" value="&lt;font data-font-src=&quot;https://fonts.googleapis.com/css?family=Indie+Flower&quot; face=&quot;Indie Flower&quot; style=&quot;font-size: 7px;&quot;&gt;&amp;nbsp;@ankt_srkr&amp;nbsp;&lt;/font&gt;" style="text;html=1;align=center;verticalAlign=middle;resizable=0;points=[];autosize=1;strokeColor=none;fillColor=none;fontSize=16;fontFamily=Architects Daughter;fontSource=https%3A%2F%2Ffonts.googleapis.com%2Fcss%3Ffamily%3DArchitects%2BDaughter;fontColor=#CCCCCC;" parent="1" vertex="1">
          <mxGeometry x="609.5" y="452" width="57" height="31" as="geometry" />
        </mxCell>
        <mxCell id="3sOn0cyW0fC2nDaG2U---35" value="" style="edgeStyle=none;curved=1;rounded=0;sketch=1;hachureGap=4;jiggle=2;curveFitting=1;orthogonalLoop=1;jettySize=auto;html=1;strokeColor=#736CA8;fontFamily=Architects Daughter;fontSource=https%3A%2F%2Ffonts.googleapis.com%2Fcss%3Ffamily%3DArchitects%2BDaughter;fontSize=12;fontColor=#1A1A1A;startSize=8;endSize=8;" parent="1" source="3sOn0cyW0fC2nDaG2U---31" target="3sOn0cyW0fC2nDaG2U---34" edge="1">
          <mxGeometry relative="1" as="geometry" />
        </mxCell>
        <mxCell id="3sOn0cyW0fC2nDaG2U---31" value="" style="whiteSpace=wrap;html=1;sketch=1;hachureGap=4;jiggle=2;curveFitting=1;fontFamily=Architects Daughter;fontSource=https%3A%2F%2Ffonts.googleapis.com%2Fcss%3Ffamily%3DArchitects%2BDaughter;labelBackgroundColor=none;fillColor=#1ba1e2;strokeColor=#006EAF;fontColor=#ffffff;" parent="1" vertex="1">
          <mxGeometry x="-58" y="354" width="40" height="40" as="geometry" />
        </mxCell>
        <mxCell id="3sOn0cyW0fC2nDaG2U---32" value="Establish Contract" style="text;whiteSpace=wrap;html=1;spacing=0;labelBackgroundColor=none;fontColor=#97D077;fontStyle=1;fontFamily=Indie Flower;fontSource=https%3A%2F%2Ffonts.googleapis.com%2Fcss%3Ffamily%3DIndie%2BFlower;fontSize=12;" parent="1" vertex="1">
          <mxGeometry x="-41" y="277" width="90" height="20" as="geometry" />
        </mxCell>
        <mxCell id="3sOn0cyW0fC2nDaG2U---33" value="By subscribing to events you establish a contract between producers &amp;amp; consumers" style="text;whiteSpace=wrap;html=1;spacing=0;labelBackgroundColor=none;fontColor=#999999;fontStyle=1;fontFamily=Indie Flower;fontSource=https%3A%2F%2Ffonts.googleapis.com%2Fcss%3Ffamily%3DIndie%2BFlower;fontSize=10;align=center;" parent="1" vertex="1">
          <mxGeometry x="-78" y="424" width="170" height="30" as="geometry" />
        </mxCell>
        <mxCell id="3sOn0cyW0fC2nDaG2U---34" value="" style="whiteSpace=wrap;html=1;sketch=1;hachureGap=4;jiggle=2;curveFitting=1;fontFamily=Architects Daughter;fontSource=https%3A%2F%2Ffonts.googleapis.com%2Fcss%3Ffamily%3DArchitects%2BDaughter;labelBackgroundColor=none;fillColor=#EA6B66;strokeColor=#EA6B66;fontColor=#ffffff;" parent="1" vertex="1">
          <mxGeometry x="32" y="354" width="40" height="40" as="geometry" />
        </mxCell>
      </root>
    </mxGraphModel>
  </diagram>
</mxfile>
